<mxfile host="Electron" agent="Mozilla/5.0 (Windows NT 10.0; Win64; x64) AppleWebKit/537.36 (KHTML, like Gecko) draw.io/26.0.16 Chrome/132.0.6834.196 Electron/34.2.0 Safari/537.36" version="26.0.16">
  <diagram name="Page-1" id="doOXALa8jk22Hy37ywl4">
    <mxGraphModel dx="958" dy="592" grid="1" gridSize="10" guides="1" tooltips="1" connect="1" arrows="1" fold="1" page="1" pageScale="1" pageWidth="850" pageHeight="1100" math="0" shadow="0">
      <root>
        <mxCell id="0" />
        <mxCell id="1" parent="0" />
        <mxCell id="RDEX3xAjXvq6QgelWfUH-1" value="HA-T6A&amp;nbsp;&lt;div&gt;Controller&lt;/div&gt;" style="rounded=1;whiteSpace=wrap;html=1;" vertex="1" parent="1">
          <mxGeometry x="110" y="215" width="110" height="150" as="geometry" />
        </mxCell>
        <mxCell id="RDEX3xAjXvq6QgelWfUH-2" value="" style="endArrow=none;html=1;rounded=0;strokeColor=#1900FF;" edge="1" parent="1">
          <mxGeometry width="50" height="50" relative="1" as="geometry">
            <mxPoint x="220" y="280" as="sourcePoint" />
            <mxPoint x="290" y="280" as="targetPoint" />
          </mxGeometry>
        </mxCell>
        <mxCell id="RDEX3xAjXvq6QgelWfUH-3" value="" style="endArrow=none;html=1;rounded=0;strokeColor=#FF0505;" edge="1" parent="1">
          <mxGeometry width="50" height="50" relative="1" as="geometry">
            <mxPoint x="220" y="290" as="sourcePoint" />
            <mxPoint x="290" y="290" as="targetPoint" />
          </mxGeometry>
        </mxCell>
        <mxCell id="RDEX3xAjXvq6QgelWfUH-4" value="" style="endArrow=none;html=1;rounded=0;strokeColor=default;" edge="1" parent="1">
          <mxGeometry width="50" height="50" relative="1" as="geometry">
            <mxPoint x="220" y="300" as="sourcePoint" />
            <mxPoint x="290" y="300" as="targetPoint" />
          </mxGeometry>
        </mxCell>
        <mxCell id="RDEX3xAjXvq6QgelWfUH-5" value="PPM (5V)" style="text;html=1;align=center;verticalAlign=middle;resizable=0;points=[];autosize=1;strokeColor=none;fillColor=none;" vertex="1" parent="1">
          <mxGeometry x="210" y="250" width="80" height="30" as="geometry" />
        </mxCell>
        <mxCell id="RDEX3xAjXvq6QgelWfUH-7" value="Logic&lt;br&gt;Shifter" style="whiteSpace=wrap;html=1;aspect=fixed;" vertex="1" parent="1">
          <mxGeometry x="290" y="260" width="60" height="60" as="geometry" />
        </mxCell>
        <mxCell id="RDEX3xAjXvq6QgelWfUH-9" value="" style="endArrow=none;html=1;rounded=0;strokeColor=#FF0505;" edge="1" parent="1">
          <mxGeometry width="50" height="50" relative="1" as="geometry">
            <mxPoint x="350" y="289.86" as="sourcePoint" />
            <mxPoint x="420" y="289.86" as="targetPoint" />
          </mxGeometry>
        </mxCell>
        <mxCell id="RDEX3xAjXvq6QgelWfUH-10" value="" style="endArrow=none;html=1;rounded=0;strokeColor=default;" edge="1" parent="1">
          <mxGeometry width="50" height="50" relative="1" as="geometry">
            <mxPoint x="350" y="299.86" as="sourcePoint" />
            <mxPoint x="420" y="299.86" as="targetPoint" />
          </mxGeometry>
        </mxCell>
        <mxCell id="RDEX3xAjXvq6QgelWfUH-11" value="PPM (3.3V)" style="text;html=1;align=center;verticalAlign=middle;resizable=0;points=[];autosize=1;strokeColor=none;fillColor=none;" vertex="1" parent="1">
          <mxGeometry x="340" y="250" width="90" height="30" as="geometry" />
        </mxCell>
        <mxCell id="RDEX3xAjXvq6QgelWfUH-12" value="" style="rounded=0;whiteSpace=wrap;html=1;" vertex="1" parent="1">
          <mxGeometry x="420" y="50" width="280" height="270" as="geometry" />
        </mxCell>
        <mxCell id="RDEX3xAjXvq6QgelWfUH-13" value="H8 Mini&lt;br&gt;Quadcopter" style="ellipse;whiteSpace=wrap;html=1;aspect=fixed;" vertex="1" parent="1">
          <mxGeometry x="410" y="360" width="80" height="80" as="geometry" />
        </mxCell>
        <mxCell id="RDEX3xAjXvq6QgelWfUH-14" value="" style="rounded=1;whiteSpace=wrap;html=1;" vertex="1" parent="1">
          <mxGeometry x="455" y="90" width="225" height="205" as="geometry" />
        </mxCell>
        <mxCell id="RDEX3xAjXvq6QgelWfUH-8" value="" style="endArrow=none;html=1;rounded=0;strokeColor=#1900FF;entryX=0;entryY=0.75;entryDx=0;entryDy=0;exitX=0.107;exitY=0.981;exitDx=0;exitDy=0;exitPerimeter=0;" edge="1" parent="1" source="RDEX3xAjXvq6QgelWfUH-11" target="RDEX3xAjXvq6QgelWfUH-22">
          <mxGeometry width="50" height="50" relative="1" as="geometry">
            <mxPoint x="350" y="339.86" as="sourcePoint" />
            <mxPoint x="515" y="275" as="targetPoint" />
            <Array as="points">
              <mxPoint x="420" y="280" />
              <mxPoint x="480" y="280" />
              <mxPoint x="480" y="175" />
            </Array>
          </mxGeometry>
        </mxCell>
        <mxCell id="RDEX3xAjXvq6QgelWfUH-22" value="PPM&lt;br&gt;Detect &amp;amp; Generate" style="rounded=0;whiteSpace=wrap;html=1;" vertex="1" parent="1">
          <mxGeometry x="507.5" y="130" width="120" height="60" as="geometry" />
        </mxCell>
        <mxCell id="RDEX3xAjXvq6QgelWfUH-24" value="mux" style="rounded=0;whiteSpace=wrap;html=1;" vertex="1" parent="1">
          <mxGeometry x="590" y="230" width="37.5" height="60" as="geometry" />
        </mxCell>
        <mxCell id="RDEX3xAjXvq6QgelWfUH-27" value="" style="endArrow=none;html=1;rounded=0;entryX=1;entryY=0.25;entryDx=0;entryDy=0;exitX=1;exitY=0.5;exitDx=0;exitDy=0;strokeColor=#FF33FF;" edge="1" parent="1" source="RDEX3xAjXvq6QgelWfUH-24" target="RDEX3xAjXvq6QgelWfUH-22">
          <mxGeometry width="50" height="50" relative="1" as="geometry">
            <mxPoint x="520" y="270" as="sourcePoint" />
            <mxPoint x="570" y="220" as="targetPoint" />
            <Array as="points">
              <mxPoint x="650" y="260" />
              <mxPoint x="650" y="145" />
            </Array>
          </mxGeometry>
        </mxCell>
        <mxCell id="RDEX3xAjXvq6QgelWfUH-29" value="" style="endArrow=none;html=1;rounded=0;entryX=1;entryY=0.75;entryDx=0;entryDy=0;exitX=1;exitY=0.25;exitDx=0;exitDy=0;strokeColor=#1900FF;" edge="1" parent="1" source="RDEX3xAjXvq6QgelWfUH-24" target="RDEX3xAjXvq6QgelWfUH-22">
          <mxGeometry width="50" height="50" relative="1" as="geometry">
            <mxPoint x="540" y="280" as="sourcePoint" />
            <mxPoint x="590" y="230" as="targetPoint" />
            <Array as="points">
              <mxPoint x="640" y="245" />
              <mxPoint x="640" y="175" />
            </Array>
          </mxGeometry>
        </mxCell>
        <mxCell id="RDEX3xAjXvq6QgelWfUH-30" value="" style="endArrow=none;html=1;rounded=0;entryX=0.5;entryY=1;entryDx=0;entryDy=0;strokeColor=#33FF33;exitX=0.5;exitY=0;exitDx=0;exitDy=0;" edge="1" parent="1" source="RDEX3xAjXvq6QgelWfUH-31" target="RDEX3xAjXvq6QgelWfUH-24">
          <mxGeometry width="50" height="50" relative="1" as="geometry">
            <mxPoint x="610" y="370" as="sourcePoint" />
            <mxPoint x="550" y="330" as="targetPoint" />
          </mxGeometry>
        </mxCell>
        <mxCell id="RDEX3xAjXvq6QgelWfUH-31" value="Arduino&lt;br&gt;Nano" style="whiteSpace=wrap;html=1;aspect=fixed;" vertex="1" parent="1">
          <mxGeometry x="578.75" y="370" width="60" height="60" as="geometry" />
        </mxCell>
        <mxCell id="RDEX3xAjXvq6QgelWfUH-34" value="" style="endArrow=none;dashed=1;html=1;dashPattern=1 3;strokeWidth=2;rounded=0;exitX=1;exitY=0.5;exitDx=0;exitDy=0;entryX=0;entryY=0.5;entryDx=0;entryDy=0;strokeColor=#33FF33;" edge="1" parent="1" source="RDEX3xAjXvq6QgelWfUH-13" target="RDEX3xAjXvq6QgelWfUH-31">
          <mxGeometry width="50" height="50" relative="1" as="geometry">
            <mxPoint x="500" y="380" as="sourcePoint" />
            <mxPoint x="550" y="330" as="targetPoint" />
          </mxGeometry>
        </mxCell>
        <mxCell id="RDEX3xAjXvq6QgelWfUH-35" value="Zedboard FPGA" style="text;html=1;align=center;verticalAlign=middle;whiteSpace=wrap;rounded=0;" vertex="1" parent="1">
          <mxGeometry x="420" y="50" width="60" height="30" as="geometry" />
        </mxCell>
        <mxCell id="RDEX3xAjXvq6QgelWfUH-36" value="ppm_axi" style="text;html=1;align=center;verticalAlign=middle;whiteSpace=wrap;rounded=0;" vertex="1" parent="1">
          <mxGeometry x="460" y="90" width="60" height="30" as="geometry" />
        </mxCell>
        <mxCell id="RDEX3xAjXvq6QgelWfUH-37" value="&lt;font style=&quot;color: rgb(25, 0, 255);&quot;&gt;Hardware&lt;br&gt;Relay&lt;/font&gt;" style="text;html=1;align=center;verticalAlign=middle;whiteSpace=wrap;rounded=0;fillColor=#f5f5f5;strokeColor=#666666;fontColor=#333333;" vertex="1" parent="1">
          <mxGeometry x="710" y="177.5" width="60" height="30" as="geometry" />
        </mxCell>
        <mxCell id="RDEX3xAjXvq6QgelWfUH-38" value="&lt;font style=&quot;color: rgb(255, 51, 255);&quot;&gt;Software&lt;br&gt;Relay&lt;/font&gt;" style="text;html=1;align=center;verticalAlign=middle;whiteSpace=wrap;rounded=0;fillColor=#f5f5f5;strokeColor=#666666;fontColor=#333333;" vertex="1" parent="1">
          <mxGeometry x="710" y="207.5" width="60" height="30" as="geometry" />
        </mxCell>
      </root>
    </mxGraphModel>
  </diagram>
</mxfile>
